<svg xmlns="http://www.w3.org/2000/svg" width="70" height="70" viewBox="0 0 70 70" style="width: 100%; height: 100%;"><desc>Made with illustrio</desc>
  
<g class="content"><path class="secondary-fill" d="M55 40h5c2.8 0 5-2.2 5-5s-2.2-5-5-5h-7.5c-2.8 0-5-2.2-5-5s2.2-5 5-5 5-2.2 5-5-2.2-5-5-5h-35c-2.8 0-5 2.2-5 5s2.2 5 5 5H20c2.8 0 5 2.2 5 5s-2.2 5-5 5H10c-2.8 0-5 2.2-5 5s2.2 5 5 5h15c2.8 0 5 2.2 5 5s-2.2 5-5 5h-7.5c-2.8 0-5 2.2-5 5s2.2 5 5 5h40c2.8 0 5-2.2 5-5s-2.2-5-5-5H55c-2.8 0-5-2.2-5-5s2.2-5 5-5z" style="fill-opacity: 0.3;"></path><g class="white-layer"><g fill="#ffffff" fill-rule="evenodd" stroke="none">
    
    
  </g><g fill="#ffffff" transform="translate(17.818 19.09)" stroke="none">
      <path d="M34.3636364 5.09090909L34.3636364.636363636C34.3636364.285090909 34.0791818 0 33.7272727 0L.636363636 0C.285090909 0 0 .285090909 0 .636363636L0 5.09090909 34.3636364 5.09090909 34.3636364 5.09090909zM24.8181818 2.54545455L29.9090909 2.54545455C30.261 2.54545455 30.5454545 2.83054545 30.5454545 3.18181818 30.5454545 3.53309091 30.261 3.81818182 29.9090909 3.81818182L24.8181818 3.81818182C24.4662727 3.81818182 24.1818182 3.53309091 24.1818182 3.18181818 24.1818182 2.83054545 24.4662727 2.54545455 24.8181818 2.54545455L24.8181818 2.54545455zM4.45454545 2.54545455L21 2.54545455C21.3519091 2.54545455 21.6363636 2.83054545 21.6363636 3.18181818 21.6363636 3.53309091 21.3519091 3.81818182 21 3.81818182L4.45454545 3.81818182C4.10327273 3.81818182 3.81818182 3.53309091 3.81818182 3.18181818 3.81818182 2.83054545 4.10327273 2.54545455 4.45454545 2.54545455L4.45454545 2.54545455zM0 6.36363636L0 31.1818182C0 31.5337273.285090909 31.8181818.636363636 31.8181818L33.7272727 31.8181818C34.0791818 31.8181818 34.3636364 31.5337273 34.3636364 31.1818182L34.3636364 6.36363636 0 6.36363636 0 6.36363636zM6.36363636 27.3636364C6.36363636 27.7155455 6.07854545 28 5.72727273 28 5.376 28 5.09090909 27.7155455 5.09090909 27.3636364L5.09090909 24.8181818C5.09090909 24.4662727 5.376 24.1818182 5.72727273 24.1818182 6.07854545 24.1818182 6.36363636 24.4662727 6.36363636 24.8181818L6.36363636 27.3636364 6.36363636 27.3636364zM6.36363636 22.2727273C6.36363636 22.6246364 6.07854545 22.9090909 5.72727273 22.9090909 5.376 22.9090909 5.09090909 22.6246364 5.09090909 22.2727273L5.09090909 19.7272727C5.09090909 19.3753636 5.376 19.0909091 5.72727273 19.0909091 6.07854545 19.0909091 6.36363636 19.3753636 6.36363636 19.7272727L6.36363636 22.2727273 6.36363636 22.2727273zM6.36363636 17.1818182C6.36363636 17.5337273 6.07854545 17.8181818 5.72727273 17.8181818 5.376 17.8181818 5.09090909 17.5337273 5.09090909 17.1818182L5.09090909 14.6363636C5.09090909 14.2850909 5.376 14 5.72727273 14 6.07854545 14 6.36363636 14.2850909 6.36363636 14.6363636L6.36363636 17.1818182 6.36363636 17.1818182zM10.1818182 27.3636364C10.1818182 27.7155455 9.89672727 28 9.54545455 28 9.19418182 28 8.90909091 27.7155455 8.90909091 27.3636364L8.90909091 24.8181818C8.90909091 24.4662727 9.19418182 24.1818182 9.54545455 24.1818182 9.89672727 24.1818182 10.1818182 24.4662727 10.1818182 24.8181818L10.1818182 27.3636364 10.1818182 27.3636364zM10.1818182 22.2727273C10.1818182 22.6246364 9.89672727 22.9090909 9.54545455 22.9090909 9.19418182 22.9090909 8.90909091 22.6246364 8.90909091 22.2727273L8.90909091 19.7272727C8.90909091 19.3753636 9.19418182 19.0909091 9.54545455 19.0909091 9.89672727 19.0909091 10.1818182 19.3753636 10.1818182 19.7272727L10.1818182 22.2727273 10.1818182 22.2727273zM10.1818182 17.1818182C10.1818182 17.5337273 9.89672727 17.8181818 9.54545455 17.8181818 9.19418182 17.8181818 8.90909091 17.5337273 8.90909091 17.1818182L8.90909091 14.6363636C8.90909091 14.2850909 9.19418182 14 9.54545455 14 9.89672727 14 10.1818182 14.2850909 10.1818182 14.6363636L10.1818182 17.1818182 10.1818182 17.1818182zM14 27.3636364C14 27.7155455 13.7149091 28 13.3636364 28 13.0123636 28 12.7272727 27.7155455 12.7272727 27.3636364L12.7272727 24.8181818C12.7272727 24.4662727 13.0123636 24.1818182 13.3636364 24.1818182 13.7149091 24.1818182 14 24.4662727 14 24.8181818L14 27.3636364 14 27.3636364zM14 22.2727273C14 22.6246364 13.7149091 22.9090909 13.3636364 22.9090909 13.0123636 22.9090909 12.7272727 22.6246364 12.7272727 22.2727273L12.7272727 19.7272727C12.7272727 19.3753636 13.0123636 19.0909091 13.3636364 19.0909091 13.7149091 19.0909091 14 19.3753636 14 19.7272727L14 22.2727273 14 22.2727273zM14 17.1818182C14 17.5337273 13.7149091 17.8181818 13.3636364 17.8181818 13.0123636 17.8181818 12.7272727 17.5337273 12.7272727 17.1818182L12.7272727 14.6363636C12.7272727 14.2850909 13.0123636 14 13.3636364 14 13.7149091 14 14 14.2850909 14 14.6363636L14 17.1818182 14 17.1818182zM14 12.0909091C14 12.4421818 13.7149091 12.7272727 13.3636364 12.7272727 13.0123636 12.7272727 12.7272727 12.4421818 12.7272727 12.0909091L12.7272727 9.54545455C12.7272727 9.19418182 13.0123636 8.90909091 13.3636364 8.90909091 13.7149091 8.90909091 14 9.19418182 14 9.54545455L14 12.0909091 14 12.0909091zM17.8181818 27.3636364C17.8181818 27.7155455 17.5330909 28 17.1818182 28 16.8305455 28 16.5454545 27.7155455 16.5454545 27.3636364L16.5454545 24.8181818C16.5454545 24.4662727 16.8305455 24.1818182 17.1818182 24.1818182 17.5330909 24.1818182 17.8181818 24.4662727 17.8181818 24.8181818L17.8181818 27.3636364 17.8181818 27.3636364zM17.8181818 22.2727273C17.8181818 22.6246364 17.5330909 22.9090909 17.1818182 22.9090909 16.8305455 22.9090909 16.5454545 22.6246364 16.5454545 22.2727273L16.5454545 19.7272727C16.5454545 19.3753636 16.8305455 19.0909091 17.1818182 19.0909091 17.5330909 19.0909091 17.8181818 19.3753636 17.8181818 19.7272727L17.8181818 22.2727273 17.8181818 22.2727273zM17.8181818 17.1818182C17.8181818 17.5337273 17.5330909 17.8181818 17.1818182 17.8181818 16.8305455 17.8181818 16.5454545 17.5337273 16.5454545 17.1818182L16.5454545 14.6363636C16.5454545 14.2850909 16.8305455 14 17.1818182 14 17.5330909 14 17.8181818 14.2850909 17.8181818 14.6363636L17.8181818 17.1818182 17.8181818 17.1818182zM17.8181818 12.0909091C17.8181818 12.4421818 17.5330909 12.7272727 17.1818182 12.7272727 16.8305455 12.7272727 16.5454545 12.4421818 16.5454545 12.0909091L16.5454545 9.54545455C16.5454545 9.19418182 16.8305455 8.90909091 17.1818182 8.90909091 17.5330909 8.90909091 17.8181818 9.19418182 17.8181818 9.54545455L17.8181818 12.0909091 17.8181818 12.0909091zM21.6363636 22.2727273C21.6363636 22.6246364 21.3519091 22.9090909 21 22.9090909 20.6480909 22.9090909 20.3636364 22.6246364 20.3636364 22.2727273L20.3636364 19.7272727C20.3636364 19.3753636 20.6480909 19.0909091 21 19.0909091 21.3519091 19.0909091 21.6363636 19.3753636 21.6363636 19.7272727L21.6363636 22.2727273 21.6363636 22.2727273zM21.6363636 17.1818182C21.6363636 17.5337273 21.3519091 17.8181818 21 17.8181818 20.6480909 17.8181818 20.3636364 17.5337273 20.3636364 17.1818182L20.3636364 14.6363636C20.3636364 14.2850909 20.6480909 14 21 14 21.3519091 14 21.6363636 14.2850909 21.6363636 14.6363636L21.6363636 17.1818182 21.6363636 17.1818182zM21.6363636 12.0909091C21.6363636 12.4421818 21.3519091 12.7272727 21 12.7272727 20.6480909 12.7272727 20.3636364 12.4421818 20.3636364 12.0909091L20.3636364 9.54545455C20.3636364 9.19418182 20.6480909 8.90909091 21 8.90909091 21.3519091 8.90909091 21.6363636 9.19418182 21.6363636 9.54545455L21.6363636 12.0909091 21.6363636 12.0909091zM25.4545455 22.2727273C25.4545455 22.6246364 25.1700909 22.9090909 24.8181818 22.9090909 24.4662727 22.9090909 24.1818182 22.6246364 24.1818182 22.2727273L24.1818182 19.7272727C24.1818182 19.3753636 24.4662727 19.0909091 24.8181818 19.0909091 25.1700909 19.0909091 25.4545455 19.3753636 25.4545455 19.7272727L25.4545455 22.2727273 25.4545455 22.2727273zM25.4545455 17.1818182C25.4545455 17.5337273 25.1700909 17.8181818 24.8181818 17.8181818 24.4662727 17.8181818 24.1818182 17.5337273 24.1818182 17.1818182L24.1818182 14.6363636C24.1818182 14.2850909 24.4662727 14 24.8181818 14 25.1700909 14 25.4545455 14.2850909 25.4545455 14.6363636L25.4545455 17.1818182 25.4545455 17.1818182zM25.4545455 12.0909091C25.4545455 12.4421818 25.1700909 12.7272727 24.8181818 12.7272727 24.4662727 12.7272727 24.1818182 12.4421818 24.1818182 12.0909091L24.1818182 9.54545455C24.1818182 9.19418182 24.4662727 8.90909091 24.8181818 8.90909091 25.1700909 8.90909091 25.4545455 9.19418182 25.4545455 9.54545455L25.4545455 12.0909091 25.4545455 12.0909091zM29.2727273 22.2727273C29.2727273 22.6246364 28.9882727 22.9090909 28.6363636 22.9090909 28.2844545 22.9090909 28 22.6246364 28 22.2727273L28 19.7272727C28 19.3753636 28.2844545 19.0909091 28.6363636 19.0909091 28.9882727 19.0909091 29.2727273 19.3753636 29.2727273 19.7272727L29.2727273 22.2727273 29.2727273 22.2727273zM29.2727273 17.1818182C29.2727273 17.5337273 28.9882727 17.8181818 28.6363636 17.8181818 28.2844545 17.8181818 28 17.5337273 28 17.1818182L28 14.6363636C28 14.2850909 28.2844545 14 28.6363636 14 28.9882727 14 29.2727273 14.2850909 29.2727273 14.6363636L29.2727273 17.1818182 29.2727273 17.1818182zM29.2727273 12.0909091C29.2727273 12.4421818 28.9882727 12.7272727 28.6363636 12.7272727 28.2844545 12.7272727 28 12.4421818 28 12.0909091L28 9.54545455C28 9.19418182 28.2844545 8.90909091 28.6363636 8.90909091 28.9882727 8.90909091 29.2727273 9.19418182 29.2727273 9.54545455L29.2727273 12.0909091 29.2727273 12.0909091z" fill="#ffffff" stroke="none"></path>
    </g></g><g class="shifted" transform="matrix(1,0,0,1,1.5,0)" style="fill-opacity: 0.3;"><g fill="none" fill-rule="evenodd" stroke="none" class="main-fill">
    
    
  </g><g fill="none" transform="translate(17.818 19.09)" stroke="none" class="main-fill">
      <path d="M34.3636364 5.09090909L34.3636364.636363636C34.3636364.285090909 34.0791818 0 33.7272727 0L.636363636 0C.285090909 0 0 .285090909 0 .636363636L0 5.09090909 34.3636364 5.09090909 34.3636364 5.09090909zM24.8181818 2.54545455L29.9090909 2.54545455C30.261 2.54545455 30.5454545 2.83054545 30.5454545 3.18181818 30.5454545 3.53309091 30.261 3.81818182 29.9090909 3.81818182L24.8181818 3.81818182C24.4662727 3.81818182 24.1818182 3.53309091 24.1818182 3.18181818 24.1818182 2.83054545 24.4662727 2.54545455 24.8181818 2.54545455L24.8181818 2.54545455zM4.45454545 2.54545455L21 2.54545455C21.3519091 2.54545455 21.6363636 2.83054545 21.6363636 3.18181818 21.6363636 3.53309091 21.3519091 3.81818182 21 3.81818182L4.45454545 3.81818182C4.10327273 3.81818182 3.81818182 3.53309091 3.81818182 3.18181818 3.81818182 2.83054545 4.10327273 2.54545455 4.45454545 2.54545455L4.45454545 2.54545455zM0 6.36363636L0 31.1818182C0 31.5337273.285090909 31.8181818.636363636 31.8181818L33.7272727 31.8181818C34.0791818 31.8181818 34.3636364 31.5337273 34.3636364 31.1818182L34.3636364 6.36363636 0 6.36363636 0 6.36363636zM6.36363636 27.3636364C6.36363636 27.7155455 6.07854545 28 5.72727273 28 5.376 28 5.09090909 27.7155455 5.09090909 27.3636364L5.09090909 24.8181818C5.09090909 24.4662727 5.376 24.1818182 5.72727273 24.1818182 6.07854545 24.1818182 6.36363636 24.4662727 6.36363636 24.8181818L6.36363636 27.3636364 6.36363636 27.3636364zM6.36363636 22.2727273C6.36363636 22.6246364 6.07854545 22.9090909 5.72727273 22.9090909 5.376 22.9090909 5.09090909 22.6246364 5.09090909 22.2727273L5.09090909 19.7272727C5.09090909 19.3753636 5.376 19.0909091 5.72727273 19.0909091 6.07854545 19.0909091 6.36363636 19.3753636 6.36363636 19.7272727L6.36363636 22.2727273 6.36363636 22.2727273zM6.36363636 17.1818182C6.36363636 17.5337273 6.07854545 17.8181818 5.72727273 17.8181818 5.376 17.8181818 5.09090909 17.5337273 5.09090909 17.1818182L5.09090909 14.6363636C5.09090909 14.2850909 5.376 14 5.72727273 14 6.07854545 14 6.36363636 14.2850909 6.36363636 14.6363636L6.36363636 17.1818182 6.36363636 17.1818182zM10.1818182 27.3636364C10.1818182 27.7155455 9.89672727 28 9.54545455 28 9.19418182 28 8.90909091 27.7155455 8.90909091 27.3636364L8.90909091 24.8181818C8.90909091 24.4662727 9.19418182 24.1818182 9.54545455 24.1818182 9.89672727 24.1818182 10.1818182 24.4662727 10.1818182 24.8181818L10.1818182 27.3636364 10.1818182 27.3636364zM10.1818182 22.2727273C10.1818182 22.6246364 9.89672727 22.9090909 9.54545455 22.9090909 9.19418182 22.9090909 8.90909091 22.6246364 8.90909091 22.2727273L8.90909091 19.7272727C8.90909091 19.3753636 9.19418182 19.0909091 9.54545455 19.0909091 9.89672727 19.0909091 10.1818182 19.3753636 10.1818182 19.7272727L10.1818182 22.2727273 10.1818182 22.2727273zM10.1818182 17.1818182C10.1818182 17.5337273 9.89672727 17.8181818 9.54545455 17.8181818 9.19418182 17.8181818 8.90909091 17.5337273 8.90909091 17.1818182L8.90909091 14.6363636C8.90909091 14.2850909 9.19418182 14 9.54545455 14 9.89672727 14 10.1818182 14.2850909 10.1818182 14.6363636L10.1818182 17.1818182 10.1818182 17.1818182zM14 27.3636364C14 27.7155455 13.7149091 28 13.3636364 28 13.0123636 28 12.7272727 27.7155455 12.7272727 27.3636364L12.7272727 24.8181818C12.7272727 24.4662727 13.0123636 24.1818182 13.3636364 24.1818182 13.7149091 24.1818182 14 24.4662727 14 24.8181818L14 27.3636364 14 27.3636364zM14 22.2727273C14 22.6246364 13.7149091 22.9090909 13.3636364 22.9090909 13.0123636 22.9090909 12.7272727 22.6246364 12.7272727 22.2727273L12.7272727 19.7272727C12.7272727 19.3753636 13.0123636 19.0909091 13.3636364 19.0909091 13.7149091 19.0909091 14 19.3753636 14 19.7272727L14 22.2727273 14 22.2727273zM14 17.1818182C14 17.5337273 13.7149091 17.8181818 13.3636364 17.8181818 13.0123636 17.8181818 12.7272727 17.5337273 12.7272727 17.1818182L12.7272727 14.6363636C12.7272727 14.2850909 13.0123636 14 13.3636364 14 13.7149091 14 14 14.2850909 14 14.6363636L14 17.1818182 14 17.1818182zM14 12.0909091C14 12.4421818 13.7149091 12.7272727 13.3636364 12.7272727 13.0123636 12.7272727 12.7272727 12.4421818 12.7272727 12.0909091L12.7272727 9.54545455C12.7272727 9.19418182 13.0123636 8.90909091 13.3636364 8.90909091 13.7149091 8.90909091 14 9.19418182 14 9.54545455L14 12.0909091 14 12.0909091zM17.8181818 27.3636364C17.8181818 27.7155455 17.5330909 28 17.1818182 28 16.8305455 28 16.5454545 27.7155455 16.5454545 27.3636364L16.5454545 24.8181818C16.5454545 24.4662727 16.8305455 24.1818182 17.1818182 24.1818182 17.5330909 24.1818182 17.8181818 24.4662727 17.8181818 24.8181818L17.8181818 27.3636364 17.8181818 27.3636364zM17.8181818 22.2727273C17.8181818 22.6246364 17.5330909 22.9090909 17.1818182 22.9090909 16.8305455 22.9090909 16.5454545 22.6246364 16.5454545 22.2727273L16.5454545 19.7272727C16.5454545 19.3753636 16.8305455 19.0909091 17.1818182 19.0909091 17.5330909 19.0909091 17.8181818 19.3753636 17.8181818 19.7272727L17.8181818 22.2727273 17.8181818 22.2727273zM17.8181818 17.1818182C17.8181818 17.5337273 17.5330909 17.8181818 17.1818182 17.8181818 16.8305455 17.8181818 16.5454545 17.5337273 16.5454545 17.1818182L16.5454545 14.6363636C16.5454545 14.2850909 16.8305455 14 17.1818182 14 17.5330909 14 17.8181818 14.2850909 17.8181818 14.6363636L17.8181818 17.1818182 17.8181818 17.1818182zM17.8181818 12.0909091C17.8181818 12.4421818 17.5330909 12.7272727 17.1818182 12.7272727 16.8305455 12.7272727 16.5454545 12.4421818 16.5454545 12.0909091L16.5454545 9.54545455C16.5454545 9.19418182 16.8305455 8.90909091 17.1818182 8.90909091 17.5330909 8.90909091 17.8181818 9.19418182 17.8181818 9.54545455L17.8181818 12.0909091 17.8181818 12.0909091zM21.6363636 22.2727273C21.6363636 22.6246364 21.3519091 22.9090909 21 22.9090909 20.6480909 22.9090909 20.3636364 22.6246364 20.3636364 22.2727273L20.3636364 19.7272727C20.3636364 19.3753636 20.6480909 19.0909091 21 19.0909091 21.3519091 19.0909091 21.6363636 19.3753636 21.6363636 19.7272727L21.6363636 22.2727273 21.6363636 22.2727273zM21.6363636 17.1818182C21.6363636 17.5337273 21.3519091 17.8181818 21 17.8181818 20.6480909 17.8181818 20.3636364 17.5337273 20.3636364 17.1818182L20.3636364 14.6363636C20.3636364 14.2850909 20.6480909 14 21 14 21.3519091 14 21.6363636 14.2850909 21.6363636 14.6363636L21.6363636 17.1818182 21.6363636 17.1818182zM21.6363636 12.0909091C21.6363636 12.4421818 21.3519091 12.7272727 21 12.7272727 20.6480909 12.7272727 20.3636364 12.4421818 20.3636364 12.0909091L20.3636364 9.54545455C20.3636364 9.19418182 20.6480909 8.90909091 21 8.90909091 21.3519091 8.90909091 21.6363636 9.19418182 21.6363636 9.54545455L21.6363636 12.0909091 21.6363636 12.0909091zM25.4545455 22.2727273C25.4545455 22.6246364 25.1700909 22.9090909 24.8181818 22.9090909 24.4662727 22.9090909 24.1818182 22.6246364 24.1818182 22.2727273L24.1818182 19.7272727C24.1818182 19.3753636 24.4662727 19.0909091 24.8181818 19.0909091 25.1700909 19.0909091 25.4545455 19.3753636 25.4545455 19.7272727L25.4545455 22.2727273 25.4545455 22.2727273zM25.4545455 17.1818182C25.4545455 17.5337273 25.1700909 17.8181818 24.8181818 17.8181818 24.4662727 17.8181818 24.1818182 17.5337273 24.1818182 17.1818182L24.1818182 14.6363636C24.1818182 14.2850909 24.4662727 14 24.8181818 14 25.1700909 14 25.4545455 14.2850909 25.4545455 14.6363636L25.4545455 17.1818182 25.4545455 17.1818182zM25.4545455 12.0909091C25.4545455 12.4421818 25.1700909 12.7272727 24.8181818 12.7272727 24.4662727 12.7272727 24.1818182 12.4421818 24.1818182 12.0909091L24.1818182 9.54545455C24.1818182 9.19418182 24.4662727 8.90909091 24.8181818 8.90909091 25.1700909 8.90909091 25.4545455 9.19418182 25.4545455 9.54545455L25.4545455 12.0909091 25.4545455 12.0909091zM29.2727273 22.2727273C29.2727273 22.6246364 28.9882727 22.9090909 28.6363636 22.9090909 28.2844545 22.9090909 28 22.6246364 28 22.2727273L28 19.7272727C28 19.3753636 28.2844545 19.0909091 28.6363636 19.0909091 28.9882727 19.0909091 29.2727273 19.3753636 29.2727273 19.7272727L29.2727273 22.2727273 29.2727273 22.2727273zM29.2727273 17.1818182C29.2727273 17.5337273 28.9882727 17.8181818 28.6363636 17.8181818 28.2844545 17.8181818 28 17.5337273 28 17.1818182L28 14.6363636C28 14.2850909 28.2844545 14 28.6363636 14 28.9882727 14 29.2727273 14.2850909 29.2727273 14.6363636L29.2727273 17.1818182 29.2727273 17.1818182zM29.2727273 12.0909091C29.2727273 12.4421818 28.9882727 12.7272727 28.6363636 12.7272727 28.2844545 12.7272727 28 12.4421818 28 12.0909091L28 9.54545455C28 9.19418182 28.2844545 8.90909091 28.6363636 8.90909091 28.9882727 8.90909091 29.2727273 9.19418182 29.2727273 9.54545455L29.2727273 12.0909091 29.2727273 12.0909091z" fill="none" stroke="none" class="main-fill"></path>
    </g></g><g class="base"><g fill="none" fill-rule="evenodd" stroke="none" class="main-stroke--darken">
    
    
  </g><g fill="none" transform="translate(17.818 19.09)" stroke="none" class="main-stroke--darken">
      <path d="M34.3636364 5.09090909L34.3636364.636363636C34.3636364.285090909 34.0791818 0 33.7272727 0L.636363636 0C.285090909 0 0 .285090909 0 .636363636L0 5.09090909 34.3636364 5.09090909 34.3636364 5.09090909zM24.8181818 2.54545455L29.9090909 2.54545455C30.261 2.54545455 30.5454545 2.83054545 30.5454545 3.18181818 30.5454545 3.53309091 30.261 3.81818182 29.9090909 3.81818182L24.8181818 3.81818182C24.4662727 3.81818182 24.1818182 3.53309091 24.1818182 3.18181818 24.1818182 2.83054545 24.4662727 2.54545455 24.8181818 2.54545455L24.8181818 2.54545455zM4.45454545 2.54545455L21 2.54545455C21.3519091 2.54545455 21.6363636 2.83054545 21.6363636 3.18181818 21.6363636 3.53309091 21.3519091 3.81818182 21 3.81818182L4.45454545 3.81818182C4.10327273 3.81818182 3.81818182 3.53309091 3.81818182 3.18181818 3.81818182 2.83054545 4.10327273 2.54545455 4.45454545 2.54545455L4.45454545 2.54545455zM0 6.36363636L0 31.1818182C0 31.5337273.285090909 31.8181818.636363636 31.8181818L33.7272727 31.8181818C34.0791818 31.8181818 34.3636364 31.5337273 34.3636364 31.1818182L34.3636364 6.36363636 0 6.36363636 0 6.36363636zM6.36363636 27.3636364C6.36363636 27.7155455 6.07854545 28 5.72727273 28 5.376 28 5.09090909 27.7155455 5.09090909 27.3636364L5.09090909 24.8181818C5.09090909 24.4662727 5.376 24.1818182 5.72727273 24.1818182 6.07854545 24.1818182 6.36363636 24.4662727 6.36363636 24.8181818L6.36363636 27.3636364 6.36363636 27.3636364zM6.36363636 22.2727273C6.36363636 22.6246364 6.07854545 22.9090909 5.72727273 22.9090909 5.376 22.9090909 5.09090909 22.6246364 5.09090909 22.2727273L5.09090909 19.7272727C5.09090909 19.3753636 5.376 19.0909091 5.72727273 19.0909091 6.07854545 19.0909091 6.36363636 19.3753636 6.36363636 19.7272727L6.36363636 22.2727273 6.36363636 22.2727273zM6.36363636 17.1818182C6.36363636 17.5337273 6.07854545 17.8181818 5.72727273 17.8181818 5.376 17.8181818 5.09090909 17.5337273 5.09090909 17.1818182L5.09090909 14.6363636C5.09090909 14.2850909 5.376 14 5.72727273 14 6.07854545 14 6.36363636 14.2850909 6.36363636 14.6363636L6.36363636 17.1818182 6.36363636 17.1818182zM10.1818182 27.3636364C10.1818182 27.7155455 9.89672727 28 9.54545455 28 9.19418182 28 8.90909091 27.7155455 8.90909091 27.3636364L8.90909091 24.8181818C8.90909091 24.4662727 9.19418182 24.1818182 9.54545455 24.1818182 9.89672727 24.1818182 10.1818182 24.4662727 10.1818182 24.8181818L10.1818182 27.3636364 10.1818182 27.3636364zM10.1818182 22.2727273C10.1818182 22.6246364 9.89672727 22.9090909 9.54545455 22.9090909 9.19418182 22.9090909 8.90909091 22.6246364 8.90909091 22.2727273L8.90909091 19.7272727C8.90909091 19.3753636 9.19418182 19.0909091 9.54545455 19.0909091 9.89672727 19.0909091 10.1818182 19.3753636 10.1818182 19.7272727L10.1818182 22.2727273 10.1818182 22.2727273zM10.1818182 17.1818182C10.1818182 17.5337273 9.89672727 17.8181818 9.54545455 17.8181818 9.19418182 17.8181818 8.90909091 17.5337273 8.90909091 17.1818182L8.90909091 14.6363636C8.90909091 14.2850909 9.19418182 14 9.54545455 14 9.89672727 14 10.1818182 14.2850909 10.1818182 14.6363636L10.1818182 17.1818182 10.1818182 17.1818182zM14 27.3636364C14 27.7155455 13.7149091 28 13.3636364 28 13.0123636 28 12.7272727 27.7155455 12.7272727 27.3636364L12.7272727 24.8181818C12.7272727 24.4662727 13.0123636 24.1818182 13.3636364 24.1818182 13.7149091 24.1818182 14 24.4662727 14 24.8181818L14 27.3636364 14 27.3636364zM14 22.2727273C14 22.6246364 13.7149091 22.9090909 13.3636364 22.9090909 13.0123636 22.9090909 12.7272727 22.6246364 12.7272727 22.2727273L12.7272727 19.7272727C12.7272727 19.3753636 13.0123636 19.0909091 13.3636364 19.0909091 13.7149091 19.0909091 14 19.3753636 14 19.7272727L14 22.2727273 14 22.2727273zM14 17.1818182C14 17.5337273 13.7149091 17.8181818 13.3636364 17.8181818 13.0123636 17.8181818 12.7272727 17.5337273 12.7272727 17.1818182L12.7272727 14.6363636C12.7272727 14.2850909 13.0123636 14 13.3636364 14 13.7149091 14 14 14.2850909 14 14.6363636L14 17.1818182 14 17.1818182zM14 12.0909091C14 12.4421818 13.7149091 12.7272727 13.3636364 12.7272727 13.0123636 12.7272727 12.7272727 12.4421818 12.7272727 12.0909091L12.7272727 9.54545455C12.7272727 9.19418182 13.0123636 8.90909091 13.3636364 8.90909091 13.7149091 8.90909091 14 9.19418182 14 9.54545455L14 12.0909091 14 12.0909091zM17.8181818 27.3636364C17.8181818 27.7155455 17.5330909 28 17.1818182 28 16.8305455 28 16.5454545 27.7155455 16.5454545 27.3636364L16.5454545 24.8181818C16.5454545 24.4662727 16.8305455 24.1818182 17.1818182 24.1818182 17.5330909 24.1818182 17.8181818 24.4662727 17.8181818 24.8181818L17.8181818 27.3636364 17.8181818 27.3636364zM17.8181818 22.2727273C17.8181818 22.6246364 17.5330909 22.9090909 17.1818182 22.9090909 16.8305455 22.9090909 16.5454545 22.6246364 16.5454545 22.2727273L16.5454545 19.7272727C16.5454545 19.3753636 16.8305455 19.0909091 17.1818182 19.0909091 17.5330909 19.0909091 17.8181818 19.3753636 17.8181818 19.7272727L17.8181818 22.2727273 17.8181818 22.2727273zM17.8181818 17.1818182C17.8181818 17.5337273 17.5330909 17.8181818 17.1818182 17.8181818 16.8305455 17.8181818 16.5454545 17.5337273 16.5454545 17.1818182L16.5454545 14.6363636C16.5454545 14.2850909 16.8305455 14 17.1818182 14 17.5330909 14 17.8181818 14.2850909 17.8181818 14.6363636L17.8181818 17.1818182 17.8181818 17.1818182zM17.8181818 12.0909091C17.8181818 12.4421818 17.5330909 12.7272727 17.1818182 12.7272727 16.8305455 12.7272727 16.5454545 12.4421818 16.5454545 12.0909091L16.5454545 9.54545455C16.5454545 9.19418182 16.8305455 8.90909091 17.1818182 8.90909091 17.5330909 8.90909091 17.8181818 9.19418182 17.8181818 9.54545455L17.8181818 12.0909091 17.8181818 12.0909091zM21.6363636 22.2727273C21.6363636 22.6246364 21.3519091 22.9090909 21 22.9090909 20.6480909 22.9090909 20.3636364 22.6246364 20.3636364 22.2727273L20.3636364 19.7272727C20.3636364 19.3753636 20.6480909 19.0909091 21 19.0909091 21.3519091 19.0909091 21.6363636 19.3753636 21.6363636 19.7272727L21.6363636 22.2727273 21.6363636 22.2727273zM21.6363636 17.1818182C21.6363636 17.5337273 21.3519091 17.8181818 21 17.8181818 20.6480909 17.8181818 20.3636364 17.5337273 20.3636364 17.1818182L20.3636364 14.6363636C20.3636364 14.2850909 20.6480909 14 21 14 21.3519091 14 21.6363636 14.2850909 21.6363636 14.6363636L21.6363636 17.1818182 21.6363636 17.1818182zM21.6363636 12.0909091C21.6363636 12.4421818 21.3519091 12.7272727 21 12.7272727 20.6480909 12.7272727 20.3636364 12.4421818 20.3636364 12.0909091L20.3636364 9.54545455C20.3636364 9.19418182 20.6480909 8.90909091 21 8.90909091 21.3519091 8.90909091 21.6363636 9.19418182 21.6363636 9.54545455L21.6363636 12.0909091 21.6363636 12.0909091zM25.4545455 22.2727273C25.4545455 22.6246364 25.1700909 22.9090909 24.8181818 22.9090909 24.4662727 22.9090909 24.1818182 22.6246364 24.1818182 22.2727273L24.1818182 19.7272727C24.1818182 19.3753636 24.4662727 19.0909091 24.8181818 19.0909091 25.1700909 19.0909091 25.4545455 19.3753636 25.4545455 19.7272727L25.4545455 22.2727273 25.4545455 22.2727273zM25.4545455 17.1818182C25.4545455 17.5337273 25.1700909 17.8181818 24.8181818 17.8181818 24.4662727 17.8181818 24.1818182 17.5337273 24.1818182 17.1818182L24.1818182 14.6363636C24.1818182 14.2850909 24.4662727 14 24.8181818 14 25.1700909 14 25.4545455 14.2850909 25.4545455 14.6363636L25.4545455 17.1818182 25.4545455 17.1818182zM25.4545455 12.0909091C25.4545455 12.4421818 25.1700909 12.7272727 24.8181818 12.7272727 24.4662727 12.7272727 24.1818182 12.4421818 24.1818182 12.0909091L24.1818182 9.54545455C24.1818182 9.19418182 24.4662727 8.90909091 24.8181818 8.90909091 25.1700909 8.90909091 25.4545455 9.19418182 25.4545455 9.54545455L25.4545455 12.0909091 25.4545455 12.0909091zM29.2727273 22.2727273C29.2727273 22.6246364 28.9882727 22.9090909 28.6363636 22.9090909 28.2844545 22.9090909 28 22.6246364 28 22.2727273L28 19.7272727C28 19.3753636 28.2844545 19.0909091 28.6363636 19.0909091 28.9882727 19.0909091 29.2727273 19.3753636 29.2727273 19.7272727L29.2727273 22.2727273 29.2727273 22.2727273zM29.2727273 17.1818182C29.2727273 17.5337273 28.9882727 17.8181818 28.6363636 17.8181818 28.2844545 17.8181818 28 17.5337273 28 17.1818182L28 14.6363636C28 14.2850909 28.2844545 14 28.6363636 14 28.9882727 14 29.2727273 14.2850909 29.2727273 14.6363636L29.2727273 17.1818182 29.2727273 17.1818182zM29.2727273 12.0909091C29.2727273 12.4421818 28.9882727 12.7272727 28.6363636 12.7272727 28.2844545 12.7272727 28 12.4421818 28 12.0909091L28 9.54545455C28 9.19418182 28.2844545 8.90909091 28.6363636 8.90909091 28.9882727 8.90909091 29.2727273 9.19418182 29.2727273 9.54545455L29.2727273 12.0909091 29.2727273 12.0909091z" fill="none" stroke="none" class="main-stroke--darken"></path>
    </g></g></g><style>
          .main-fill {fill: #671af5;}
          .main-stroke {stroke: #671af5;}
          .secondary-fill {fill: #a562ea;}
          .secondary-stroke {stroke: #a562ea;}

          .main-fill--darken {fill: #4708ba;}
          .main-stroke--darken {stroke: #4708ba;}
          .secondary-fill--darken {fill: #7e1ee1;}
          .secondary-stroke--darken {stroke: #7e1ee1;}

          .main-fill--darkener {fill: #340689;}
          .main-stroke--darkener {stroke: #340689;}
          .secondary-fill--darkener {fill: #6518b4;}
          .secondary-stroke--darkener {stroke: #6518b4;}
        </style></svg>