<svg xmlns="http://www.w3.org/2000/svg" width="70" height="70" viewBox="0 0 70 70" style="width: 100%; height: 100%;"><desc>Made with illustrio</desc>
  
<g class="content"><path class="secondary-fill" d="M55 40h5c2.8 0 5-2.2 5-5s-2.2-5-5-5h-7.5c-2.8 0-5-2.2-5-5s2.2-5 5-5 5-2.2 5-5-2.2-5-5-5h-35c-2.8 0-5 2.2-5 5s2.2 5 5 5H20c2.8 0 5 2.2 5 5s-2.2 5-5 5H10c-2.8 0-5 2.2-5 5s2.2 5 5 5h15c2.8 0 5 2.2 5 5s-2.2 5-5 5h-7.5c-2.8 0-5 2.2-5 5s2.2 5 5 5h40c2.8 0 5-2.2 5-5s-2.2-5-5-5H55c-2.8 0-5-2.2-5-5s2.2-5 5-5z" style="fill-opacity: 0.3;"></path><g class="white-layer"><g fill="#ffffff" fill-rule="evenodd" stroke="none">
    
    <path fill="#ffffff" d="M33.7272727,0 L0.636363636,0 C0.285090909,0 0,0.285090909 0,0.636363636 L0,25.7593636 L2.89672727,24.2492727 C3.07554545,24.1595455 3.28681818,24.1595455 3.46627273,24.2492727 L5.50963636,25.2706364 L7.74327273,21.9195455 C7.86927273,21.7305455 8.08563636,21.6261818 8.31218182,21.6376364 C8.53872727,21.6516364 8.74045455,21.7852727 8.84227273,21.9882727 L10.8181818,25.9407273 L12.7940909,21.9882727 C12.8857273,21.805 13.0600909,21.6777273 13.2624545,21.6452727 C13.4654545,21.6115455 13.6703636,21.6796364 13.8154545,21.8247273 C13.8472727,21.8565455 14.9341818,22.9434545 15.6768182,23.6860909 L17.864,18.2184545 C17.9435455,18.0199091 18.1172727,17.8741818 18.3272727,17.8315455 C18.5398182,17.7882727 18.7542727,17.8538182 18.9050909,18.0046364 L20.7683636,19.8679091 L22.9549091,14.4002727 C22.9714545,14.3595455 22.9924545,14.3200909 23.0166364,14.2831818 L25.5627273,10.465 C25.5856364,10.43 25.6123636,10.3975455 25.6422727,10.3682727 L27.1001818,8.90909091 L26.0909091,8.90909091 C25.739,8.90909091 25.4545455,8.624 25.4545455,8.27272727 C25.4545455,7.92145455 25.739,7.63636364 26.0909091,7.63636364 L28.6363636,7.63636364 C28.7190909,7.63636364 28.8018182,7.65290909 28.8794545,7.68536364 C29.0353636,7.75027273 29.1588182,7.87372727 29.2237273,8.02963636 C29.2561818,8.10727273 29.2727273,8.19 29.2727273,8.27272727 L29.2727273,10.8181818 C29.2727273,11.1694545 28.9882727,11.4545455 28.6363636,11.4545455 C28.2844545,11.4545455 28,11.1694545 28,10.8181818 L28,9.80890909 L26.5853636,11.2235455 L24.1105455,14.9341818 L21.5905455,21.2360909 C21.511,21.4346364 21.3372727,21.5803636 21.1272727,21.623 C20.9147273,21.6662727 20.7002727,21.6007273 20.5494545,21.4499091 L18.6861818,19.5866364 L16.499,25.0542727 C16.4194545,25.2528182 16.2457273,25.3985455 16.0357273,25.4411818 C15.827,25.4838182 15.6093636,25.4195455 15.4579091,25.2680909 C14.5689091,24.3797273 13.9573636,23.7681818 13.5418182,23.3360909 L11.3858182,27.6480909 C11.2795455,27.8638182 11.0593636,28 10.8181818,28 C10.577,28 10.3568182,27.8638182 10.2486364,27.6480909 L8.19381818,23.5378182 L6.25672727,26.4434545 C6.07854545,26.7107273 5.73045455,26.8023636 5.44281818,26.6598182 L3.18181818,25.5296364 L0,27.0581818 L0,33.7272727 C0,34.0791818 0.285090909,34.3636364 0.636363636,34.3636364 L33.7272727,34.3636364 C34.0791818,34.3636364 34.3636364,34.0791818 34.3636364,33.7272727 L34.3636364,0.636363636 C34.3636364,0.285090909 34.0791818,0 33.7272727,0 L33.7272727,0 Z" transform="translate(17.818 17.818)" stroke="none"></path>
  </g></g><g class="shifted" transform="matrix(1,0,0,1,1.5,0)" style="fill-opacity: 0.3;"><g fill="none" fill-rule="evenodd" stroke="none" class="main-fill">
    
    <path fill="none" d="M33.7272727,0 L0.636363636,0 C0.285090909,0 0,0.285090909 0,0.636363636 L0,25.7593636 L2.89672727,24.2492727 C3.07554545,24.1595455 3.28681818,24.1595455 3.46627273,24.2492727 L5.50963636,25.2706364 L7.74327273,21.9195455 C7.86927273,21.7305455 8.08563636,21.6261818 8.31218182,21.6376364 C8.53872727,21.6516364 8.74045455,21.7852727 8.84227273,21.9882727 L10.8181818,25.9407273 L12.7940909,21.9882727 C12.8857273,21.805 13.0600909,21.6777273 13.2624545,21.6452727 C13.4654545,21.6115455 13.6703636,21.6796364 13.8154545,21.8247273 C13.8472727,21.8565455 14.9341818,22.9434545 15.6768182,23.6860909 L17.864,18.2184545 C17.9435455,18.0199091 18.1172727,17.8741818 18.3272727,17.8315455 C18.5398182,17.7882727 18.7542727,17.8538182 18.9050909,18.0046364 L20.7683636,19.8679091 L22.9549091,14.4002727 C22.9714545,14.3595455 22.9924545,14.3200909 23.0166364,14.2831818 L25.5627273,10.465 C25.5856364,10.43 25.6123636,10.3975455 25.6422727,10.3682727 L27.1001818,8.90909091 L26.0909091,8.90909091 C25.739,8.90909091 25.4545455,8.624 25.4545455,8.27272727 C25.4545455,7.92145455 25.739,7.63636364 26.0909091,7.63636364 L28.6363636,7.63636364 C28.7190909,7.63636364 28.8018182,7.65290909 28.8794545,7.68536364 C29.0353636,7.75027273 29.1588182,7.87372727 29.2237273,8.02963636 C29.2561818,8.10727273 29.2727273,8.19 29.2727273,8.27272727 L29.2727273,10.8181818 C29.2727273,11.1694545 28.9882727,11.4545455 28.6363636,11.4545455 C28.2844545,11.4545455 28,11.1694545 28,10.8181818 L28,9.80890909 L26.5853636,11.2235455 L24.1105455,14.9341818 L21.5905455,21.2360909 C21.511,21.4346364 21.3372727,21.5803636 21.1272727,21.623 C20.9147273,21.6662727 20.7002727,21.6007273 20.5494545,21.4499091 L18.6861818,19.5866364 L16.499,25.0542727 C16.4194545,25.2528182 16.2457273,25.3985455 16.0357273,25.4411818 C15.827,25.4838182 15.6093636,25.4195455 15.4579091,25.2680909 C14.5689091,24.3797273 13.9573636,23.7681818 13.5418182,23.3360909 L11.3858182,27.6480909 C11.2795455,27.8638182 11.0593636,28 10.8181818,28 C10.577,28 10.3568182,27.8638182 10.2486364,27.6480909 L8.19381818,23.5378182 L6.25672727,26.4434545 C6.07854545,26.7107273 5.73045455,26.8023636 5.44281818,26.6598182 L3.18181818,25.5296364 L0,27.0581818 L0,33.7272727 C0,34.0791818 0.285090909,34.3636364 0.636363636,34.3636364 L33.7272727,34.3636364 C34.0791818,34.3636364 34.3636364,34.0791818 34.3636364,33.7272727 L34.3636364,0.636363636 C34.3636364,0.285090909 34.0791818,0 33.7272727,0 L33.7272727,0 Z" transform="translate(17.818 17.818)" stroke="none" class="main-fill"></path>
  </g></g><g class="base"><g fill="none" fill-rule="evenodd" stroke="none" class="main-stroke--darken">
    
    <path fill="none" d="M33.7272727,0 L0.636363636,0 C0.285090909,0 0,0.285090909 0,0.636363636 L0,25.7593636 L2.89672727,24.2492727 C3.07554545,24.1595455 3.28681818,24.1595455 3.46627273,24.2492727 L5.50963636,25.2706364 L7.74327273,21.9195455 C7.86927273,21.7305455 8.08563636,21.6261818 8.31218182,21.6376364 C8.53872727,21.6516364 8.74045455,21.7852727 8.84227273,21.9882727 L10.8181818,25.9407273 L12.7940909,21.9882727 C12.8857273,21.805 13.0600909,21.6777273 13.2624545,21.6452727 C13.4654545,21.6115455 13.6703636,21.6796364 13.8154545,21.8247273 C13.8472727,21.8565455 14.9341818,22.9434545 15.6768182,23.6860909 L17.864,18.2184545 C17.9435455,18.0199091 18.1172727,17.8741818 18.3272727,17.8315455 C18.5398182,17.7882727 18.7542727,17.8538182 18.9050909,18.0046364 L20.7683636,19.8679091 L22.9549091,14.4002727 C22.9714545,14.3595455 22.9924545,14.3200909 23.0166364,14.2831818 L25.5627273,10.465 C25.5856364,10.43 25.6123636,10.3975455 25.6422727,10.3682727 L27.1001818,8.90909091 L26.0909091,8.90909091 C25.739,8.90909091 25.4545455,8.624 25.4545455,8.27272727 C25.4545455,7.92145455 25.739,7.63636364 26.0909091,7.63636364 L28.6363636,7.63636364 C28.7190909,7.63636364 28.8018182,7.65290909 28.8794545,7.68536364 C29.0353636,7.75027273 29.1588182,7.87372727 29.2237273,8.02963636 C29.2561818,8.10727273 29.2727273,8.19 29.2727273,8.27272727 L29.2727273,10.8181818 C29.2727273,11.1694545 28.9882727,11.4545455 28.6363636,11.4545455 C28.2844545,11.4545455 28,11.1694545 28,10.8181818 L28,9.80890909 L26.5853636,11.2235455 L24.1105455,14.9341818 L21.5905455,21.2360909 C21.511,21.4346364 21.3372727,21.5803636 21.1272727,21.623 C20.9147273,21.6662727 20.7002727,21.6007273 20.5494545,21.4499091 L18.6861818,19.5866364 L16.499,25.0542727 C16.4194545,25.2528182 16.2457273,25.3985455 16.0357273,25.4411818 C15.827,25.4838182 15.6093636,25.4195455 15.4579091,25.2680909 C14.5689091,24.3797273 13.9573636,23.7681818 13.5418182,23.3360909 L11.3858182,27.6480909 C11.2795455,27.8638182 11.0593636,28 10.8181818,28 C10.577,28 10.3568182,27.8638182 10.2486364,27.6480909 L8.19381818,23.5378182 L6.25672727,26.4434545 C6.07854545,26.7107273 5.73045455,26.8023636 5.44281818,26.6598182 L3.18181818,25.5296364 L0,27.0581818 L0,33.7272727 C0,34.0791818 0.285090909,34.3636364 0.636363636,34.3636364 L33.7272727,34.3636364 C34.0791818,34.3636364 34.3636364,34.0791818 34.3636364,33.7272727 L34.3636364,0.636363636 C34.3636364,0.285090909 34.0791818,0 33.7272727,0 L33.7272727,0 Z" transform="translate(17.818 17.818)" stroke="none" class="main-stroke--darken"></path>
  </g></g></g><style>
          .main-fill {fill: #671af5;}
          .main-stroke {stroke: #671af5;}
          .secondary-fill {fill: #a562ea;}
          .secondary-stroke {stroke: #a562ea;}

          .main-fill--darken {fill: #4708ba;}
          .main-stroke--darken {stroke: #4708ba;}
          .secondary-fill--darken {fill: #7e1ee1;}
          .secondary-stroke--darken {stroke: #7e1ee1;}

          .main-fill--darkener {fill: #340689;}
          .main-stroke--darkener {stroke: #340689;}
          .secondary-fill--darkener {fill: #6518b4;}
          .secondary-stroke--darkener {stroke: #6518b4;}
        </style></svg>