<svg xmlns="http://www.w3.org/2000/svg" width="70" height="70" viewBox="0 0 70 70" style="width: 100%; height: 100%;"><desc>Made with illustrio</desc>
  
<g class="content"><path class="secondary-fill" d="M55 40h5c2.8 0 5-2.2 5-5s-2.2-5-5-5h-7.5c-2.8 0-5-2.2-5-5s2.2-5 5-5 5-2.2 5-5-2.2-5-5-5h-35c-2.8 0-5 2.2-5 5s2.2 5 5 5H20c2.8 0 5 2.2 5 5s-2.2 5-5 5H10c-2.8 0-5 2.2-5 5s2.2 5 5 5h15c2.8 0 5 2.2 5 5s-2.2 5-5 5h-7.5c-2.8 0-5 2.2-5 5s2.2 5 5 5h40c2.8 0 5-2.2 5-5s-2.2-5-5-5H55c-2.8 0-5-2.2-5-5s2.2-5 5-5z" style="fill-opacity: 0.3;"></path><g class="white-layer"><g fill="#ffffff" fill-rule="evenodd" stroke="none">
    
    <path fill="#ffffff" d="M33.9672667,6.16606667 C30.2544667,2.45326667 25.3176,0.408333333 20.0666667,0.408333333 C14.8157333,0.408333333 9.87886667,2.45326667 6.16606667,6.16606667 C2.45326667,9.87886667 0.408333333,14.8157333 0.408333333,20.0666667 C0.408333333,25.3176 2.45326667,30.2544667 6.16606667,33.9672667 C9.87886667,37.6800667 14.8157333,39.725 20.0666667,39.725 C25.3176,39.725 30.2544667,37.6800667 33.9672667,33.9672667 C41.6318,26.3022667 41.6318,13.8310667 33.9672667,6.16606667 L33.9672667,6.16606667 Z M31.0786,15.9418 C31.0786,16.3286667 30.765,16.6418 30.3786,16.6418 C29.9922,16.6418 29.6786,16.3286667 29.6786,15.9418 L29.6786,11.4445333 L18.7642,22.3589333 L19.7955333,27.5151333 L13.3434,33.9672667 C13.2066667,34.104 13.0274667,34.1721333 12.8482667,34.1721333 C12.6690667,34.1721333 12.4898667,34.104 12.3531333,33.9672667 C12.0796667,33.6938 12.0796667,33.2509333 12.3531333,32.9774667 L18.2751333,27.055 L17.2438,21.8988 L28.6878667,10.4547333 L24.1906,10.4547333 C23.8042,10.4547333 23.4906,10.1416 23.4906,9.75473333 C23.4906,9.36786667 23.8042,9.05473333 24.1906,9.05473333 L30.3776667,9.05473333 C30.4677333,9.05473333 30.5536,9.0734 30.6329333,9.1042 C30.6366667,9.1056 30.6404,9.10606667 30.6436667,9.10746667 C30.8158667,9.1784 30.9535333,9.31606667 31.0244667,9.48826667 C31.0258667,9.492 31.0263333,9.49573333 31.0277333,9.499 C31.0585333,9.57833333 31.0772,9.6642 31.0772,9.75426667 L31.0772,15.9418 L31.0786,15.9418 Z" transform="translate(14.933 14.933)" stroke="none"></path>
  </g></g><g class="shifted" transform="matrix(1,0,0,1,1.5,0)" style="fill-opacity: 0.3;"><g fill="none" fill-rule="evenodd" stroke="none" class="main-fill">
    
    <path fill="none" d="M33.9672667,6.16606667 C30.2544667,2.45326667 25.3176,0.408333333 20.0666667,0.408333333 C14.8157333,0.408333333 9.87886667,2.45326667 6.16606667,6.16606667 C2.45326667,9.87886667 0.408333333,14.8157333 0.408333333,20.0666667 C0.408333333,25.3176 2.45326667,30.2544667 6.16606667,33.9672667 C9.87886667,37.6800667 14.8157333,39.725 20.0666667,39.725 C25.3176,39.725 30.2544667,37.6800667 33.9672667,33.9672667 C41.6318,26.3022667 41.6318,13.8310667 33.9672667,6.16606667 L33.9672667,6.16606667 Z M31.0786,15.9418 C31.0786,16.3286667 30.765,16.6418 30.3786,16.6418 C29.9922,16.6418 29.6786,16.3286667 29.6786,15.9418 L29.6786,11.4445333 L18.7642,22.3589333 L19.7955333,27.5151333 L13.3434,33.9672667 C13.2066667,34.104 13.0274667,34.1721333 12.8482667,34.1721333 C12.6690667,34.1721333 12.4898667,34.104 12.3531333,33.9672667 C12.0796667,33.6938 12.0796667,33.2509333 12.3531333,32.9774667 L18.2751333,27.055 L17.2438,21.8988 L28.6878667,10.4547333 L24.1906,10.4547333 C23.8042,10.4547333 23.4906,10.1416 23.4906,9.75473333 C23.4906,9.36786667 23.8042,9.05473333 24.1906,9.05473333 L30.3776667,9.05473333 C30.4677333,9.05473333 30.5536,9.0734 30.6329333,9.1042 C30.6366667,9.1056 30.6404,9.10606667 30.6436667,9.10746667 C30.8158667,9.1784 30.9535333,9.31606667 31.0244667,9.48826667 C31.0258667,9.492 31.0263333,9.49573333 31.0277333,9.499 C31.0585333,9.57833333 31.0772,9.6642 31.0772,9.75426667 L31.0772,15.9418 L31.0786,15.9418 Z" transform="translate(14.933 14.933)" stroke="none" class="main-fill"></path>
  </g></g><g class="base"><g fill="none" fill-rule="evenodd" stroke="none" class="main-stroke--darken">
    
    <path fill="none" d="M33.9672667,6.16606667 C30.2544667,2.45326667 25.3176,0.408333333 20.0666667,0.408333333 C14.8157333,0.408333333 9.87886667,2.45326667 6.16606667,6.16606667 C2.45326667,9.87886667 0.408333333,14.8157333 0.408333333,20.0666667 C0.408333333,25.3176 2.45326667,30.2544667 6.16606667,33.9672667 C9.87886667,37.6800667 14.8157333,39.725 20.0666667,39.725 C25.3176,39.725 30.2544667,37.6800667 33.9672667,33.9672667 C41.6318,26.3022667 41.6318,13.8310667 33.9672667,6.16606667 L33.9672667,6.16606667 Z M31.0786,15.9418 C31.0786,16.3286667 30.765,16.6418 30.3786,16.6418 C29.9922,16.6418 29.6786,16.3286667 29.6786,15.9418 L29.6786,11.4445333 L18.7642,22.3589333 L19.7955333,27.5151333 L13.3434,33.9672667 C13.2066667,34.104 13.0274667,34.1721333 12.8482667,34.1721333 C12.6690667,34.1721333 12.4898667,34.104 12.3531333,33.9672667 C12.0796667,33.6938 12.0796667,33.2509333 12.3531333,32.9774667 L18.2751333,27.055 L17.2438,21.8988 L28.6878667,10.4547333 L24.1906,10.4547333 C23.8042,10.4547333 23.4906,10.1416 23.4906,9.75473333 C23.4906,9.36786667 23.8042,9.05473333 24.1906,9.05473333 L30.3776667,9.05473333 C30.4677333,9.05473333 30.5536,9.0734 30.6329333,9.1042 C30.6366667,9.1056 30.6404,9.10606667 30.6436667,9.10746667 C30.8158667,9.1784 30.9535333,9.31606667 31.0244667,9.48826667 C31.0258667,9.492 31.0263333,9.49573333 31.0277333,9.499 C31.0585333,9.57833333 31.0772,9.6642 31.0772,9.75426667 L31.0772,15.9418 L31.0786,15.9418 Z" transform="translate(14.933 14.933)" stroke="none" class="main-stroke--darken"></path>
  </g></g></g><style>
          .main-fill {fill: #671af5;}
          .main-stroke {stroke: #671af5;}
          .secondary-fill {fill: #a562ea;}
          .secondary-stroke {stroke: #a562ea;}

          .main-fill--darken {fill: #4708ba;}
          .main-stroke--darken {stroke: #4708ba;}
          .secondary-fill--darken {fill: #7e1ee1;}
          .secondary-stroke--darken {stroke: #7e1ee1;}

          .main-fill--darkener {fill: #340689;}
          .main-stroke--darkener {stroke: #340689;}
          .secondary-fill--darkener {fill: #6518b4;}
          .secondary-stroke--darkener {stroke: #6518b4;}
        </style></svg>