<svg xmlns="http://www.w3.org/2000/svg" width="70" height="70" viewBox="0 0 70 70" style="width: 100%; height: 100%;"><desc>Made with illustrio</desc>
  
<g class="content"><path class="secondary-fill" d="M55 40h5c2.8 0 5-2.2 5-5s-2.2-5-5-5h-7.5c-2.8 0-5-2.2-5-5s2.2-5 5-5 5-2.2 5-5-2.2-5-5-5h-35c-2.8 0-5 2.2-5 5s2.2 5 5 5H20c2.8 0 5 2.2 5 5s-2.2 5-5 5H10c-2.8 0-5 2.2-5 5s2.2 5 5 5h15c2.8 0 5 2.2 5 5s-2.2 5-5 5h-7.5c-2.8 0-5 2.2-5 5s2.2 5 5 5h40c2.8 0 5-2.2 5-5s-2.2-5-5-5H55c-2.8 0-5-2.2-5-5s2.2-5 5-5z" style="fill-opacity: 0.3;"></path><g class="white-layer"><g fill="#ffffff" fill-rule="evenodd" stroke="none">
    
    
  </g><g fill="#ffffff" transform="translate(21 16.8)" stroke="none">
      <path d="M14.7 11.6116C15.0971333 11.5546667 15.4634667 11.4562 15.7490667 11.3129333 16.0990667 11.1379333 16.2166667 10.9615333 16.2166667 10.9074 16.2166667 10.7473333 15.6930667 10.3422667 14.7 10.2018L14.7 11.6116 14.7 11.6116zM11.7833333 7.99166667C11.7833333 8.15173333 12.3074 8.55726667 13.3 8.69773333L13.3 7.28606667C12.3074 7.42606667 11.7833333 7.8316 11.7833333 7.99166667L11.7833333 7.99166667z" fill="#ffffff" stroke="none"></path>
      <polygon points="6.008 .41 .585 5.833 6.008 5.833" fill="#ffffff" stroke="none"></polygon>
      <path d="M7.40833333,0 L7.40833333,7.23333333 L0.175,7.23333333 L0.175,36.4 L27.825,36.4 L27.825,0 L7.40833333,0 L7.40833333,0 Z M5.95,32.7833333 C5.95,33.1697333 5.63686667,33.4833333 5.25,33.4833333 C4.86313333,33.4833333 4.55,33.1697333 4.55,32.7833333 L4.55,28.4083333 C4.55,28.0219333 4.86313333,27.7083333 5.25,27.7083333 C5.63686667,27.7083333 5.95,28.0219333 5.95,28.4083333 L5.95,32.7833333 L5.95,32.7833333 Z M8.86666667,32.7833333 C8.86666667,33.1697333 8.55353333,33.4833333 8.16666667,33.4833333 C7.7798,33.4833333 7.46666667,33.1697333 7.46666667,32.7833333 L7.46666667,25.4916667 C7.46666667,25.1052667 7.7798,24.7916667 8.16666667,24.7916667 C8.55353333,24.7916667 8.86666667,25.1052667 8.86666667,25.4916667 L8.86666667,32.7833333 L8.86666667,32.7833333 Z M11.7833333,32.7833333 C11.7833333,33.1697333 11.4702,33.4833333 11.0833333,33.4833333 C10.6964667,33.4833333 10.3833333,33.1697333 10.3833333,32.7833333 L10.3833333,28.4083333 C10.3833333,28.0219333 10.6964667,27.7083333 11.0833333,27.7083333 C11.4702,27.7083333 11.7833333,28.0219333 11.7833333,28.4083333 L11.7833333,32.7833333 L11.7833333,32.7833333 Z M14.7,32.7833333 C14.7,33.1697333 14.3868667,33.4833333 14,33.4833333 C13.6131333,33.4833333 13.3,33.1697333 13.3,32.7833333 L13.3,21.1166667 C13.3,20.7302667 13.6131333,20.4166667 14,20.4166667 C14.3868667,20.4166667 14.7,20.7302667 14.7,21.1166667 L14.7,32.7833333 L14.7,32.7833333 Z M17.6166667,32.7833333 C17.6166667,33.1697333 17.3030667,33.4833333 16.9166667,33.4833333 C16.5302667,33.4833333 16.2166667,33.1697333 16.2166667,32.7833333 L16.2166667,26.95 C16.2166667,26.5636 16.5302667,26.25 16.9166667,26.25 C17.3030667,26.25 17.6166667,26.5636 17.6166667,26.95 L17.6166667,32.7833333 L17.6166667,32.7833333 Z M17.6166667,10.9078667 C17.6166667,11.5766 17.1761333,12.1650667 16.3753333,12.5654667 C15.9026,12.8020667 15.323,12.9584 14.7,13.0265333 L14.7,13.825 C14.7,14.2118667 14.3868667,14.525 14,14.525 C13.6131333,14.525 13.3,14.2118667 13.3,13.825 L13.3,13.0265333 C12.677,12.9584 12.0974,12.8020667 11.6246667,12.5654667 C10.8243333,12.1655333 10.3833333,11.5766 10.3833333,10.9083333 C10.3833333,10.5214667 10.6964667,10.2083333 11.0833333,10.2083333 C11.4702,10.2083333 11.7833333,10.5214667 11.7833333,10.9083333 C11.7833333,10.962 11.9009333,11.1384 12.2504667,11.3134 C12.5365333,11.4566667 12.9028667,11.5551333 13.3,11.6120667 L13.3,10.1122 C11.5966667,9.92833333 10.3833333,9.079 10.3833333,7.99213333 C10.3833333,6.90526667 11.5966667,6.05593333 13.3,5.87206667 L13.3,5.07546667 C13.3,4.6886 13.6131333,4.37546667 14,4.37546667 C14.3868667,4.37546667 14.7,4.6886 14.7,5.07546667 L14.7,5.87206667 C16.4033333,6.0564 17.6166667,6.90573333 17.6166667,7.99213333 C17.6166667,8.379 17.3030667,8.69213333 16.9166667,8.69213333 C16.5302667,8.69213333 16.2166667,8.379 16.2166667,7.99213333 C16.2166667,7.83206667 15.6930667,7.42653333 14.7,7.28606667 L14.7,8.78873333 C16.4033333,8.97213333 17.6166667,9.82146667 17.6166667,10.9078667 L17.6166667,10.9078667 Z M20.5333333,32.7833333 C20.5333333,33.1697333 20.2197333,33.4833333 19.8333333,33.4833333 C19.4469333,33.4833333 19.1333333,33.1697333 19.1333333,32.7833333 L19.1333333,24.0333333 C19.1333333,23.6469333 19.4469333,23.3333333 19.8333333,23.3333333 C20.2197333,23.3333333 20.5333333,23.6469333 20.5333333,24.0333333 L20.5333333,32.7833333 L20.5333333,32.7833333 Z M23.45,32.7833333 C23.45,33.1697333 23.1364,33.4833333 22.75,33.4833333 C22.3636,33.4833333 22.05,33.1697333 22.05,32.7833333 L22.05,15.2833333 C22.05,14.8964667 22.3636,14.5833333 22.75,14.5833333 C23.1364,14.5833333 23.45,14.8964667 23.45,15.2833333 L23.45,32.7833333 L23.45,32.7833333 Z" fill="#ffffff" stroke="none"></path>
    </g></g><g class="shifted" transform="matrix(1,0,0,1,1.5,0)" style="fill-opacity: 0.3;"><g fill="none" fill-rule="evenodd" stroke="none" class="main-fill">
    
    
  </g><g fill="none" transform="translate(21 16.8)" stroke="none" class="main-fill">
      <path d="M14.7 11.6116C15.0971333 11.5546667 15.4634667 11.4562 15.7490667 11.3129333 16.0990667 11.1379333 16.2166667 10.9615333 16.2166667 10.9074 16.2166667 10.7473333 15.6930667 10.3422667 14.7 10.2018L14.7 11.6116 14.7 11.6116zM11.7833333 7.99166667C11.7833333 8.15173333 12.3074 8.55726667 13.3 8.69773333L13.3 7.28606667C12.3074 7.42606667 11.7833333 7.8316 11.7833333 7.99166667L11.7833333 7.99166667z" fill="none" stroke="none" class="main-fill"></path>
      <polygon points="6.008 .41 .585 5.833 6.008 5.833" fill="none" stroke="none" class="main-fill"></polygon>
      <path d="M7.40833333,0 L7.40833333,7.23333333 L0.175,7.23333333 L0.175,36.4 L27.825,36.4 L27.825,0 L7.40833333,0 L7.40833333,0 Z M5.95,32.7833333 C5.95,33.1697333 5.63686667,33.4833333 5.25,33.4833333 C4.86313333,33.4833333 4.55,33.1697333 4.55,32.7833333 L4.55,28.4083333 C4.55,28.0219333 4.86313333,27.7083333 5.25,27.7083333 C5.63686667,27.7083333 5.95,28.0219333 5.95,28.4083333 L5.95,32.7833333 L5.95,32.7833333 Z M8.86666667,32.7833333 C8.86666667,33.1697333 8.55353333,33.4833333 8.16666667,33.4833333 C7.7798,33.4833333 7.46666667,33.1697333 7.46666667,32.7833333 L7.46666667,25.4916667 C7.46666667,25.1052667 7.7798,24.7916667 8.16666667,24.7916667 C8.55353333,24.7916667 8.86666667,25.1052667 8.86666667,25.4916667 L8.86666667,32.7833333 L8.86666667,32.7833333 Z M11.7833333,32.7833333 C11.7833333,33.1697333 11.4702,33.4833333 11.0833333,33.4833333 C10.6964667,33.4833333 10.3833333,33.1697333 10.3833333,32.7833333 L10.3833333,28.4083333 C10.3833333,28.0219333 10.6964667,27.7083333 11.0833333,27.7083333 C11.4702,27.7083333 11.7833333,28.0219333 11.7833333,28.4083333 L11.7833333,32.7833333 L11.7833333,32.7833333 Z M14.7,32.7833333 C14.7,33.1697333 14.3868667,33.4833333 14,33.4833333 C13.6131333,33.4833333 13.3,33.1697333 13.3,32.7833333 L13.3,21.1166667 C13.3,20.7302667 13.6131333,20.4166667 14,20.4166667 C14.3868667,20.4166667 14.7,20.7302667 14.7,21.1166667 L14.7,32.7833333 L14.7,32.7833333 Z M17.6166667,32.7833333 C17.6166667,33.1697333 17.3030667,33.4833333 16.9166667,33.4833333 C16.5302667,33.4833333 16.2166667,33.1697333 16.2166667,32.7833333 L16.2166667,26.95 C16.2166667,26.5636 16.5302667,26.25 16.9166667,26.25 C17.3030667,26.25 17.6166667,26.5636 17.6166667,26.95 L17.6166667,32.7833333 L17.6166667,32.7833333 Z M17.6166667,10.9078667 C17.6166667,11.5766 17.1761333,12.1650667 16.3753333,12.5654667 C15.9026,12.8020667 15.323,12.9584 14.7,13.0265333 L14.7,13.825 C14.7,14.2118667 14.3868667,14.525 14,14.525 C13.6131333,14.525 13.3,14.2118667 13.3,13.825 L13.3,13.0265333 C12.677,12.9584 12.0974,12.8020667 11.6246667,12.5654667 C10.8243333,12.1655333 10.3833333,11.5766 10.3833333,10.9083333 C10.3833333,10.5214667 10.6964667,10.2083333 11.0833333,10.2083333 C11.4702,10.2083333 11.7833333,10.5214667 11.7833333,10.9083333 C11.7833333,10.962 11.9009333,11.1384 12.2504667,11.3134 C12.5365333,11.4566667 12.9028667,11.5551333 13.3,11.6120667 L13.3,10.1122 C11.5966667,9.92833333 10.3833333,9.079 10.3833333,7.99213333 C10.3833333,6.90526667 11.5966667,6.05593333 13.3,5.87206667 L13.3,5.07546667 C13.3,4.6886 13.6131333,4.37546667 14,4.37546667 C14.3868667,4.37546667 14.7,4.6886 14.7,5.07546667 L14.7,5.87206667 C16.4033333,6.0564 17.6166667,6.90573333 17.6166667,7.99213333 C17.6166667,8.379 17.3030667,8.69213333 16.9166667,8.69213333 C16.5302667,8.69213333 16.2166667,8.379 16.2166667,7.99213333 C16.2166667,7.83206667 15.6930667,7.42653333 14.7,7.28606667 L14.7,8.78873333 C16.4033333,8.97213333 17.6166667,9.82146667 17.6166667,10.9078667 L17.6166667,10.9078667 Z M20.5333333,32.7833333 C20.5333333,33.1697333 20.2197333,33.4833333 19.8333333,33.4833333 C19.4469333,33.4833333 19.1333333,33.1697333 19.1333333,32.7833333 L19.1333333,24.0333333 C19.1333333,23.6469333 19.4469333,23.3333333 19.8333333,23.3333333 C20.2197333,23.3333333 20.5333333,23.6469333 20.5333333,24.0333333 L20.5333333,32.7833333 L20.5333333,32.7833333 Z M23.45,32.7833333 C23.45,33.1697333 23.1364,33.4833333 22.75,33.4833333 C22.3636,33.4833333 22.05,33.1697333 22.05,32.7833333 L22.05,15.2833333 C22.05,14.8964667 22.3636,14.5833333 22.75,14.5833333 C23.1364,14.5833333 23.45,14.8964667 23.45,15.2833333 L23.45,32.7833333 L23.45,32.7833333 Z" fill="none" stroke="none" class="main-fill"></path>
    </g></g><g class="base"><g fill="none" fill-rule="evenodd" stroke="none" class="main-stroke--darken">
    
    
  </g><g fill="none" transform="translate(21 16.8)" stroke="none" class="main-stroke--darken">
      <path d="M14.7 11.6116C15.0971333 11.5546667 15.4634667 11.4562 15.7490667 11.3129333 16.0990667 11.1379333 16.2166667 10.9615333 16.2166667 10.9074 16.2166667 10.7473333 15.6930667 10.3422667 14.7 10.2018L14.7 11.6116 14.7 11.6116zM11.7833333 7.99166667C11.7833333 8.15173333 12.3074 8.55726667 13.3 8.69773333L13.3 7.28606667C12.3074 7.42606667 11.7833333 7.8316 11.7833333 7.99166667L11.7833333 7.99166667z" fill="none" stroke="none" class="main-stroke--darken"></path>
      <polygon points="6.008 .41 .585 5.833 6.008 5.833" fill="none" stroke="none" class="main-stroke--darken"></polygon>
      <path d="M7.40833333,0 L7.40833333,7.23333333 L0.175,7.23333333 L0.175,36.4 L27.825,36.4 L27.825,0 L7.40833333,0 L7.40833333,0 Z M5.95,32.7833333 C5.95,33.1697333 5.63686667,33.4833333 5.25,33.4833333 C4.86313333,33.4833333 4.55,33.1697333 4.55,32.7833333 L4.55,28.4083333 C4.55,28.0219333 4.86313333,27.7083333 5.25,27.7083333 C5.63686667,27.7083333 5.95,28.0219333 5.95,28.4083333 L5.95,32.7833333 L5.95,32.7833333 Z M8.86666667,32.7833333 C8.86666667,33.1697333 8.55353333,33.4833333 8.16666667,33.4833333 C7.7798,33.4833333 7.46666667,33.1697333 7.46666667,32.7833333 L7.46666667,25.4916667 C7.46666667,25.1052667 7.7798,24.7916667 8.16666667,24.7916667 C8.55353333,24.7916667 8.86666667,25.1052667 8.86666667,25.4916667 L8.86666667,32.7833333 L8.86666667,32.7833333 Z M11.7833333,32.7833333 C11.7833333,33.1697333 11.4702,33.4833333 11.0833333,33.4833333 C10.6964667,33.4833333 10.3833333,33.1697333 10.3833333,32.7833333 L10.3833333,28.4083333 C10.3833333,28.0219333 10.6964667,27.7083333 11.0833333,27.7083333 C11.4702,27.7083333 11.7833333,28.0219333 11.7833333,28.4083333 L11.7833333,32.7833333 L11.7833333,32.7833333 Z M14.7,32.7833333 C14.7,33.1697333 14.3868667,33.4833333 14,33.4833333 C13.6131333,33.4833333 13.3,33.1697333 13.3,32.7833333 L13.3,21.1166667 C13.3,20.7302667 13.6131333,20.4166667 14,20.4166667 C14.3868667,20.4166667 14.7,20.7302667 14.7,21.1166667 L14.7,32.7833333 L14.7,32.7833333 Z M17.6166667,32.7833333 C17.6166667,33.1697333 17.3030667,33.4833333 16.9166667,33.4833333 C16.5302667,33.4833333 16.2166667,33.1697333 16.2166667,32.7833333 L16.2166667,26.95 C16.2166667,26.5636 16.5302667,26.25 16.9166667,26.25 C17.3030667,26.25 17.6166667,26.5636 17.6166667,26.95 L17.6166667,32.7833333 L17.6166667,32.7833333 Z M17.6166667,10.9078667 C17.6166667,11.5766 17.1761333,12.1650667 16.3753333,12.5654667 C15.9026,12.8020667 15.323,12.9584 14.7,13.0265333 L14.7,13.825 C14.7,14.2118667 14.3868667,14.525 14,14.525 C13.6131333,14.525 13.3,14.2118667 13.3,13.825 L13.3,13.0265333 C12.677,12.9584 12.0974,12.8020667 11.6246667,12.5654667 C10.8243333,12.1655333 10.3833333,11.5766 10.3833333,10.9083333 C10.3833333,10.5214667 10.6964667,10.2083333 11.0833333,10.2083333 C11.4702,10.2083333 11.7833333,10.5214667 11.7833333,10.9083333 C11.7833333,10.962 11.9009333,11.1384 12.2504667,11.3134 C12.5365333,11.4566667 12.9028667,11.5551333 13.3,11.6120667 L13.3,10.1122 C11.5966667,9.92833333 10.3833333,9.079 10.3833333,7.99213333 C10.3833333,6.90526667 11.5966667,6.05593333 13.3,5.87206667 L13.3,5.07546667 C13.3,4.6886 13.6131333,4.37546667 14,4.37546667 C14.3868667,4.37546667 14.7,4.6886 14.7,5.07546667 L14.7,5.87206667 C16.4033333,6.0564 17.6166667,6.90573333 17.6166667,7.99213333 C17.6166667,8.379 17.3030667,8.69213333 16.9166667,8.69213333 C16.5302667,8.69213333 16.2166667,8.379 16.2166667,7.99213333 C16.2166667,7.83206667 15.6930667,7.42653333 14.7,7.28606667 L14.7,8.78873333 C16.4033333,8.97213333 17.6166667,9.82146667 17.6166667,10.9078667 L17.6166667,10.9078667 Z M20.5333333,32.7833333 C20.5333333,33.1697333 20.2197333,33.4833333 19.8333333,33.4833333 C19.4469333,33.4833333 19.1333333,33.1697333 19.1333333,32.7833333 L19.1333333,24.0333333 C19.1333333,23.6469333 19.4469333,23.3333333 19.8333333,23.3333333 C20.2197333,23.3333333 20.5333333,23.6469333 20.5333333,24.0333333 L20.5333333,32.7833333 L20.5333333,32.7833333 Z M23.45,32.7833333 C23.45,33.1697333 23.1364,33.4833333 22.75,33.4833333 C22.3636,33.4833333 22.05,33.1697333 22.05,32.7833333 L22.05,15.2833333 C22.05,14.8964667 22.3636,14.5833333 22.75,14.5833333 C23.1364,14.5833333 23.45,14.8964667 23.45,15.2833333 L23.45,32.7833333 L23.45,32.7833333 Z" fill="none" stroke="none" class="main-stroke--darken"></path>
    </g></g></g><style>
          .main-fill {fill: #671af5;}
          .main-stroke {stroke: #671af5;}
          .secondary-fill {fill: #c2a5ea;}
          .secondary-stroke {stroke: #c2a5ea;}

          .main-fill--darken {fill: #4708ba;}
          .main-stroke--darken {stroke: #4708ba;}
          .secondary-fill--darken {fill: #9867dc;}
          .secondary-stroke--darken {stroke: #9867dc;}

          .main-fill--darkener {fill: #340689;}
          .main-stroke--darkener {stroke: #340689;}
          .secondary-fill--darkener {fill: #7c3ed2;}
          .secondary-stroke--darkener {stroke: #7c3ed2;}
        </style></svg>